<svg width="1440" height="80" viewBox="0 0 1440 80" fill="none" xmlns="http://www.w3.org/2000/svg">
    <path fill-rule="evenodd" clip-rule="evenodd" d="M0 0H1440V11C1440 9.34315 1438.66 8 1437 8H1430.43C1428.78 8 1427.43 9.34315 1427.43 11C1427.43 12.6569 1428.78 14 1430.43 14H1437C1438.66 14 1440 12.6569 1440 11V69C1440 67.3431 1438.66 66 1437 66H1430.43C1428.78 66 1427.43 67.3431 1427.43 69C1427.43 70.6569 1428.78 72 1430.43 72H1437C1438.66 72 1440 70.6569 1440 69V80H0V69C0 70.6569 1.34315 72 3 72H9.56871C11.2256 72 12.5687 70.6569 12.5687 69C12.5687 67.3431 11.2256 66 9.56871 66H3C1.34315 66 0 67.3431 0 69V11C0 12.6569 1.34315 14 3 14H9.56871C11.2256 14 12.5687 12.6569 12.5687 11C12.5687 9.34315 11.2256 8 9.56871 8H3C1.34315 8 0 9.34315 0 11V0ZM26.7801 11C26.7801 9.34315 28.1233 8 29.7801 8H42.9175C44.5744 8 45.9175 9.34315 45.9175 11C45.9175 12.6569 44.5744 14 42.9175 14H29.7801C28.1233 14 26.7801 12.6569 26.7801 11ZM60.129 11C60.129 9.34315 61.4721 8 63.129 8H76.2664C77.9232 8 79.2664 9.34315 79.2664 11C79.2664 12.6569 77.9232 14 76.2664 14H63.129C61.4721 14 60.129 12.6569 60.129 11ZM93.4778 11C93.4778 9.34315 94.821 8 96.4778 8H109.615C111.272 8 112.615 9.34315 112.615 11C112.615 12.6569 111.272 14 109.615 14H96.4778C94.821 14 93.4778 12.6569 93.4778 11ZM126.827 11C126.827 9.34315 128.17 8 129.827 8H142.964C144.621 8 145.964 9.34315 145.964 11C145.964 12.6569 144.621 14 142.964 14H129.827C128.17 14 126.827 12.6569 126.827 11ZM160.175 11C160.175 9.34315 161.519 8 163.175 8H176.313C177.97 8 179.313 9.34315 179.313 11C179.313 12.6569 177.97 14 176.313 14H163.175C161.519 14 160.175 12.6569 160.175 11ZM193.524 11C193.524 9.34315 194.867 8 196.524 8H209.662C211.319 8 212.662 9.34315 212.662 11C212.662 12.6569 211.319 14 209.662 14H196.524C194.867 14 193.524 12.6569 193.524 11ZM226.873 11C226.873 9.34315 228.216 8 229.873 8H243.011C244.667 8 246.011 9.34315 246.011 11C246.011 12.6569 244.667 14 243.011 14H229.873C228.216 14 226.873 12.6569 226.873 11ZM260.222 11C260.222 9.34315 261.565 8 263.222 8H276.359C278.016 8 279.359 9.34315 279.359 11C279.359 12.6569 278.016 14 276.359 14H263.222C261.565 14 260.222 12.6569 260.222 11ZM293.571 11C293.571 9.34315 294.914 8 296.571 8H309.708C311.365 8 312.708 9.34315 312.708 11C312.708 12.6569 311.365 14 309.708 14H296.571C294.914 14 293.571 12.6569 293.571 11ZM326.92 11C326.92 9.34315 328.263 8 329.92 8H343.057C344.714 8 346.057 9.34315 346.057 11C346.057 12.6569 344.714 14 343.057 14H329.92C328.263 14 326.92 12.6569 326.92 11ZM360.269 11C360.269 9.34315 361.612 8 363.269 8H376.406C378.063 8 379.406 9.34315 379.406 11C379.406 12.6569 378.063 14 376.406 14H363.269C361.612 14 360.269 12.6569 360.269 11ZM393.617 11C393.617 9.34315 394.961 8 396.617 8H409.755C411.412 8 412.755 9.34315 412.755 11C412.755 12.6569 411.412 14 409.755 14H396.617C394.961 14 393.617 12.6569 393.617 11ZM426.966 11C426.966 9.34315 428.309 8 429.966 8H443.104C444.76 8 446.104 9.34315 446.104 11C446.104 12.6569 444.76 14 443.104 14H429.966C428.309 14 426.966 12.6569 426.966 11ZM460.315 11C460.315 9.34315 461.658 8 463.315 8H476.452C478.109 8 479.452 9.34315 479.452 11C479.452 12.6569 478.109 14 476.452 14H463.315C461.658 14 460.315 12.6569 460.315 11ZM493.664 11C493.664 9.34315 495.007 8 496.664 8H509.801C511.458 8 512.801 9.34315 512.801 11C512.801 12.6569 511.458 14 509.801 14H496.664C495.007 14 493.664 12.6569 493.664 11ZM527.013 11C527.013 9.34315 528.356 8 530.013 8H543.15C544.807 8 546.15 9.34315 546.15 11C546.15 12.6569 544.807 14 543.15 14H530.013C528.356 14 527.013 12.6569 527.013 11ZM560.362 11C560.362 9.34315 561.705 8 563.362 8H576.499C578.156 8 579.499 9.34315 579.499 11C579.499 12.6569 578.156 14 576.499 14H563.362C561.705 14 560.362 12.6569 560.362 11ZM593.71 11C593.71 9.34315 595.054 8 596.71 8H609.848C611.505 8 612.848 9.34315 612.848 11C612.848 12.6569 611.505 14 609.848 14H596.71C595.054 14 593.71 12.6569 593.71 11ZM627.059 11C627.059 9.34315 628.402 8 630.059 8H643.197C644.854 8 646.197 9.34315 646.197 11C646.197 12.6569 644.854 14 643.197 14H630.059C628.402 14 627.059 12.6569 627.059 11ZM660.408 11C660.408 9.34315 661.751 8 663.408 8H676.546C678.203 8 679.546 9.34315 679.546 11C679.546 12.6569 678.203 14 676.546 14H663.408C661.751 14 660.408 12.6569 660.408 11ZM693.757 11C693.757 9.34315 695.1 8 696.757 8H709.895C711.551 8 712.895 9.34315 712.895 11C712.895 12.6569 711.551 14 709.895 14H696.757C695.1 14 693.757 12.6569 693.757 11ZM727.106 11C727.106 9.34315 728.449 8 730.106 8H743.243C744.9 8 746.243 9.34315 746.243 11C746.243 12.6569 744.9 14 743.243 14H730.106C728.449 14 727.106 12.6569 727.106 11ZM760.455 11C760.455 9.34315 761.798 8 763.455 8H776.592C778.249 8 779.592 9.34315 779.592 11C779.592 12.6569 778.249 14 776.592 14H763.455C761.798 14 760.455 12.6569 760.455 11ZM793.804 11C793.804 9.34315 795.147 8 796.804 8H809.941C811.598 8 812.941 9.34315 812.941 11C812.941 12.6569 811.598 14 809.941 14H796.804C795.147 14 793.804 12.6569 793.804 11ZM827.153 11C827.153 9.34315 828.496 8 830.153 8H843.29C844.947 8 846.29 9.34315 846.29 11C846.29 12.6569 844.947 14 843.29 14H830.153C828.496 14 827.153 12.6569 827.153 11ZM860.501 11C860.501 9.34315 861.845 8 863.501 8H876.639C878.296 8 879.639 9.34315 879.639 11C879.639 12.6569 878.296 14 876.639 14H863.501C861.845 14 860.501 12.6569 860.501 11ZM893.85 11C893.85 9.34315 895.193 8 896.85 8H909.988C911.645 8 912.988 9.34315 912.988 11C912.988 12.6569 911.645 14 909.988 14H896.85C895.193 14 893.85 12.6569 893.85 11ZM927.199 11C927.199 9.34315 928.542 8 930.199 8H943.337C944.994 8 946.337 9.34315 946.337 11C946.337 12.6569 944.994 14 943.337 14H930.199C928.542 14 927.199 12.6569 927.199 11ZM960.548 11C960.548 9.34315 961.891 8 963.548 8H976.685C978.342 8 979.685 9.34315 979.685 11C979.685 12.6569 978.342 14 976.685 14H963.548C961.891 14 960.548 12.6569 960.548 11ZM993.897 11C993.897 9.34315 995.24 8 996.897 8H1010.03C1011.69 8 1013.03 9.34315 1013.03 11C1013.03 12.6569 1011.69 14 1010.03 14H996.897C995.24 14 993.897 12.6569 993.897 11ZM1027.25 11C1027.25 9.34315 1028.59 8 1030.25 8H1043.38C1045.04 8 1046.38 9.34315 1046.38 11C1046.38 12.6569 1045.04 14 1043.38 14H1030.25C1028.59 14 1027.25 12.6569 1027.25 11ZM1060.59 11C1060.59 9.34315 1061.94 8 1063.59 8H1076.73C1078.39 8 1079.73 9.34315 1079.73 11C1079.73 12.6569 1078.39 14 1076.73 14H1063.59C1061.94 14 1060.59 12.6569 1060.59 11ZM1093.94 11C1093.94 9.34315 1095.29 8 1096.94 8H1110.08C1111.74 8 1113.08 9.34315 1113.08 11C1113.08 12.6569 1111.74 14 1110.08 14H1096.94C1095.29 14 1093.94 12.6569 1093.94 11ZM1127.29 11C1127.29 9.34315 1128.64 8 1130.29 8H1143.43C1145.09 8 1146.43 9.34315 1146.43 11C1146.43 12.6569 1145.09 14 1143.43 14H1130.29C1128.64 14 1127.29 12.6569 1127.29 11ZM1160.64 11C1160.64 9.34315 1161.98 8 1163.64 8H1176.78C1178.44 8 1179.78 9.34315 1179.78 11C1179.78 12.6569 1178.44 14 1176.78 14H1163.64C1161.98 14 1160.64 12.6569 1160.64 11ZM1193.99 11C1193.99 9.34315 1195.33 8 1196.99 8H1210.13C1211.78 8 1213.13 9.34315 1213.13 11C1213.13 12.6569 1211.78 14 1210.13 14H1196.99C1195.33 14 1193.99 12.6569 1193.99 11ZM1227.34 11C1227.34 9.34315 1228.68 8 1230.34 8H1243.48C1245.13 8 1246.48 9.34315 1246.48 11C1246.48 12.6569 1245.13 14 1243.48 14H1230.34C1228.68 14 1227.34 12.6569 1227.34 11ZM1260.69 11C1260.69 9.34315 1262.03 8 1263.69 8H1276.83C1278.48 8 1279.83 9.34315 1279.83 11C1279.83 12.6569 1278.48 14 1276.83 14H1263.69C1262.03 14 1260.69 12.6569 1260.69 11ZM1294.04 11C1294.04 9.34315 1295.38 8 1297.04 8H1310.17C1311.83 8 1313.17 9.34315 1313.17 11C1313.17 12.6569 1311.83 14 1310.17 14H1297.04C1295.38 14 1294.04 12.6569 1294.04 11ZM1327.39 11C1327.39 9.34315 1328.73 8 1330.39 8H1343.52C1345.18 8 1346.52 9.34315 1346.52 11C1346.52 12.6569 1345.18 14 1343.52 14H1330.39C1328.73 14 1327.39 12.6569 1327.39 11ZM1360.73 11C1360.73 9.34315 1362.08 8 1363.73 8H1376.87C1378.53 8 1379.87 9.34315 1379.87 11C1379.87 12.6569 1378.53 14 1376.87 14H1363.73C1362.08 14 1360.73 12.6569 1360.73 11ZM1394.08 11C1394.08 9.34315 1395.43 8 1397.08 8H1410.22C1411.88 8 1413.22 9.34315 1413.22 11C1413.22 12.6569 1411.88 14 1410.22 14H1397.08C1395.43 14 1394.08 12.6569 1394.08 11ZM29.7801 66C28.1233 66 26.7801 67.3431 26.7801 69C26.7801 70.6569 28.1233 72 29.7801 72H42.9175C44.5744 72 45.9175 70.6569 45.9175 69C45.9175 67.3431 44.5744 66 42.9175 66H29.7801ZM63.129 66C61.4721 66 60.129 67.3431 60.129 69C60.129 70.6569 61.4721 72 63.129 72H76.2664C77.9232 72 79.2664 70.6569 79.2664 69C79.2664 67.3431 77.9232 66 76.2664 66H63.129ZM96.4778 66C94.821 66 93.4778 67.3431 93.4778 69C93.4778 70.6569 94.821 72 96.4778 72H109.615C111.272 72 112.615 70.6569 112.615 69C112.615 67.3431 111.272 66 109.615 66H96.4778ZM129.827 66C128.17 66 126.827 67.3431 126.827 69C126.827 70.6569 128.17 72 129.827 72H142.964C144.621 72 145.964 70.6569 145.964 69C145.964 67.3431 144.621 66 142.964 66H129.827ZM163.175 66C161.519 66 160.175 67.3431 160.175 69C160.175 70.6569 161.519 72 163.175 72H176.313C177.97 72 179.313 70.6569 179.313 69C179.313 67.3431 177.97 66 176.313 66H163.175ZM196.524 66C194.867 66 193.524 67.3431 193.524 69C193.524 70.6569 194.867 72 196.524 72H209.662C211.319 72 212.662 70.6569 212.662 69C212.662 67.3431 211.319 66 209.662 66H196.524ZM229.873 66C228.216 66 226.873 67.3431 226.873 69C226.873 70.6569 228.216 72 229.873 72H243.011C244.667 72 246.011 70.6569 246.011 69C246.011 67.3431 244.667 66 243.011 66H229.873ZM263.222 66C261.565 66 260.222 67.3431 260.222 69C260.222 70.6569 261.565 72 263.222 72H276.359C278.016 72 279.359 70.6569 279.359 69C279.359 67.3431 278.016 66 276.359 66H263.222ZM296.571 66C294.914 66 293.571 67.3431 293.571 69C293.571 70.6569 294.914 72 296.571 72H309.708C311.365 72 312.708 70.6569 312.708 69C312.708 67.3431 311.365 66 309.708 66H296.571ZM329.92 66C328.263 66 326.92 67.3431 326.92 69C326.92 70.6569 328.263 72 329.92 72H343.057C344.714 72 346.057 70.6569 346.057 69C346.057 67.3431 344.714 66 343.057 66H329.92ZM363.269 66C361.612 66 360.269 67.3431 360.269 69C360.269 70.6569 361.612 72 363.269 72H376.406C378.063 72 379.406 70.6569 379.406 69C379.406 67.3431 378.063 66 376.406 66H363.269ZM396.617 66C394.961 66 393.617 67.3431 393.617 69C393.617 70.6569 394.961 72 396.617 72H409.755C411.412 72 412.755 70.6569 412.755 69C412.755 67.3431 411.412 66 409.755 66H396.617ZM429.966 66C428.309 66 426.966 67.3431 426.966 69C426.966 70.6569 428.309 72 429.966 72H443.104C444.76 72 446.104 70.6569 446.104 69C446.104 67.3431 444.76 66 443.104 66H429.966ZM463.315 66C461.658 66 460.315 67.3431 460.315 69C460.315 70.6569 461.658 72 463.315 72H476.452C478.109 72 479.452 70.6569 479.452 69C479.452 67.3431 478.109 66 476.452 66H463.315ZM496.664 66C495.007 66 493.664 67.3431 493.664 69C493.664 70.6569 495.007 72 496.664 72H509.801C511.458 72 512.801 70.6569 512.801 69C512.801 67.3431 511.458 66 509.801 66H496.664ZM530.013 66C528.356 66 527.013 67.3431 527.013 69C527.013 70.6569 528.356 72 530.013 72H543.15C544.807 72 546.15 70.6569 546.15 69C546.15 67.3431 544.807 66 543.15 66H530.013ZM563.362 66C561.705 66 560.362 67.3431 560.362 69C560.362 70.6569 561.705 72 563.362 72H576.499C578.156 72 579.499 70.6569 579.499 69C579.499 67.3431 578.156 66 576.499 66H563.362ZM596.71 66C595.054 66 593.71 67.3431 593.71 69C593.71 70.6569 595.054 72 596.71 72H609.848C611.505 72 612.848 70.6569 612.848 69C612.848 67.3431 611.505 66 609.848 66H596.71ZM630.059 66C628.402 66 627.059 67.3431 627.059 69C627.059 70.6569 628.402 72 630.059 72H643.197C644.854 72 646.197 70.6569 646.197 69C646.197 67.3431 644.854 66 643.197 66H630.059ZM663.408 66C661.751 66 660.408 67.3431 660.408 69C660.408 70.6569 661.751 72 663.408 72H676.546C678.203 72 679.546 70.6569 679.546 69C679.546 67.3431 678.203 66 676.546 66H663.408ZM696.757 66C695.1 66 693.757 67.3431 693.757 69C693.757 70.6569 695.1 72 696.757 72H709.895C711.551 72 712.895 70.6569 712.895 69C712.895 67.3431 711.551 66 709.895 66H696.757ZM730.106 66C728.449 66 727.106 67.3431 727.106 69C727.106 70.6569 728.449 72 730.106 72H743.243C744.9 72 746.243 70.6569 746.243 69C746.243 67.3431 744.9 66 743.243 66H730.106ZM763.455 66C761.798 66 760.455 67.3431 760.455 69C760.455 70.6569 761.798 72 763.455 72H776.592C778.249 72 779.592 70.6569 779.592 69C779.592 67.3431 778.249 66 776.592 66H763.455ZM796.804 66C795.147 66 793.804 67.3431 793.804 69C793.804 70.6569 795.147 72 796.804 72H809.941C811.598 72 812.941 70.6569 812.941 69C812.941 67.3431 811.598 66 809.941 66H796.804ZM830.153 66C828.496 66 827.153 67.3431 827.153 69C827.153 70.6569 828.496 72 830.153 72H843.29C844.947 72 846.29 70.6569 846.29 69C846.29 67.3431 844.947 66 843.29 66H830.153ZM863.501 66C861.845 66 860.501 67.3431 860.501 69C860.501 70.6569 861.845 72 863.501 72H876.639C878.296 72 879.639 70.6569 879.639 69C879.639 67.3431 878.296 66 876.639 66H863.501ZM896.85 66C895.193 66 893.85 67.3431 893.85 69C893.85 70.6569 895.193 72 896.85 72H909.988C911.645 72 912.988 70.6569 912.988 69C912.988 67.3431 911.645 66 909.988 66H896.85ZM930.199 66C928.542 66 927.199 67.3431 927.199 69C927.199 70.6569 928.542 72 930.199 72H943.337C944.994 72 946.337 70.6569 946.337 69C946.337 67.3431 944.994 66 943.337 66H930.199ZM963.548 66C961.891 66 960.548 67.3431 960.548 69C960.548 70.6569 961.891 72 963.548 72H976.685C978.342 72 979.685 70.6569 979.685 69C979.685 67.3431 978.342 66 976.685 66H963.548ZM996.897 66C995.24 66 993.897 67.3431 993.897 69C993.897 70.6569 995.24 72 996.897 72H1010.03C1011.69 72 1013.03 70.6569 1013.03 69C1013.03 67.3431 1011.69 66 1010.03 66H996.897ZM1030.25 66C1028.59 66 1027.25 67.3431 1027.25 69C1027.25 70.6569 1028.59 72 1030.25 72H1043.38C1045.04 72 1046.38 70.6569 1046.38 69C1046.38 67.3431 1045.04 66 1043.38 66H1030.25ZM1063.59 66C1061.94 66 1060.59 67.3431 1060.59 69C1060.59 70.6569 1061.94 72 1063.59 72H1076.73C1078.39 72 1079.73 70.6569 1079.73 69C1079.73 67.3431 1078.39 66 1076.73 66H1063.59ZM1096.94 66C1095.29 66 1093.94 67.3431 1093.94 69C1093.94 70.6569 1095.29 72 1096.94 72H1110.08C1111.74 72 1113.08 70.6569 1113.08 69C1113.08 67.3431 1111.74 66 1110.08 66H1096.94ZM1130.29 66C1128.64 66 1127.29 67.3431 1127.29 69C1127.29 70.6569 1128.64 72 1130.29 72H1143.43C1145.09 72 1146.43 70.6569 1146.43 69C1146.43 67.3431 1145.09 66 1143.43 66H1130.29ZM1163.64 66C1161.98 66 1160.64 67.3431 1160.64 69C1160.64 70.6569 1161.98 72 1163.64 72H1176.78C1178.44 72 1179.78 70.6569 1179.78 69C1179.78 67.3431 1178.44 66 1176.78 66H1163.64ZM1196.99 66C1195.33 66 1193.99 67.3431 1193.99 69C1193.99 70.6569 1195.33 72 1196.99 72H1210.13C1211.78 72 1213.13 70.6569 1213.13 69C1213.13 67.3431 1211.78 66 1210.13 66H1196.99ZM1230.34 66C1228.68 66 1227.34 67.3431 1227.34 69C1227.34 70.6569 1228.68 72 1230.34 72H1243.48C1245.13 72 1246.48 70.6569 1246.48 69C1246.48 67.3431 1245.13 66 1243.48 66H1230.34ZM1263.69 66C1262.03 66 1260.69 67.3431 1260.69 69C1260.69 70.6569 1262.03 72 1263.69 72H1276.83C1278.48 72 1279.83 70.6569 1279.83 69C1279.83 67.3431 1278.48 66 1276.83 66H1263.69ZM1297.04 66C1295.38 66 1294.04 67.3431 1294.04 69C1294.04 70.6569 1295.38 72 1297.04 72H1310.17C1311.83 72 1313.17 70.6569 1313.17 69C1313.17 67.3431 1311.83 66 1310.17 66H1297.04ZM1330.39 66C1328.73 66 1327.39 67.3431 1327.39 69C1327.39 70.6569 1328.73 72 1330.39 72H1343.52C1345.18 72 1346.52 70.6569 1346.52 69C1346.52 67.3431 1345.18 66 1343.52 66H1330.39ZM1363.73 66C1362.08 66 1360.73 67.3431 1360.73 69C1360.73 70.6569 1362.08 72 1363.73 72H1376.87C1378.53 72 1379.87 70.6569 1379.87 69C1379.87 67.3431 1378.53 66 1376.87 66H1363.73ZM1397.08 66C1395.43 66 1394.08 67.3431 1394.08 69C1394.08 70.6569 1395.43 72 1397.08 72H1410.22C1411.88 72 1413.22 70.6569 1413.22 69C1413.22 67.3431 1411.88 66 1410.22 66H1397.08Z" fill="black" fill-opacity="0.31"/>
    </svg>
    